Patient4_TMGait_0pt8_01_right_26_EMG.mot
version=1
nRows=16
nColumns=33
inDegrees=no
endheader
time	1LAddLong	2LGlutMax	3LGlutMed	4LIliopsoas	5LSemiMemb	6LBicFemLong	7LRecFem	8LVastMed	9LVastLat	10LGasMed	11LTibAnt	12lTibPost	13LPeroneusLong	14LSol	15LExtDigLong	16LFlexDigLong	17RAddLong	18RGlutMax	19RGlutMed	20RIliopsoas	21RSemiMemb	22RBicFemLong	23RRecFem	24RVastMed	25RVastLat	26RGasMed	27RTibAnt	28RTibPost	29RPeroneusLong	30RSol	31RExtDigLong	32RFlexDigLong
29.06	0.002289	0.040894	-0.121	0.001678	0.023041	0.2803	0.40329	-0.007019	-0.06485	-0.035095	-0.27847	-0.024414	-0.035553	0.26382	-0.20645	0.19867	0.03418	0.466	0.48508	-0.28351	0.1059	-0.018768	0.15137	0.060272	-0.035858	-0.012817	0.14557	-0.023346	-0.14755	0.16388	0.000305	-0.015869
29.061	-0.007019	0.007935	-0.079498	-0.000153	0.017395	0.2771	0.44998	0.003204	-0.41122	0.093079	0.10712	-0.007019	-0.011749	0.13077	0.078125	-0.38391	0.089722	0.40665	0.5629	-0.24231	0.10056	-0.048828	0.19562	0.092926	-0.032501	-0.00946	0.034485	-0.020599	0.059814	0.12817	-0.00351	-0.006714
29.062	-0.005646	0.012817	0.001831	0.007324	0.020447	0.16312	0.28122	0.024414	-0.47257	0.021515	0.45822	-0.003357	-0.18631	0.15991	0.44647	-0.62744	0.12436	0.38315	0.5452	-0.11475	0.071411	-0.058136	0.18738	0.13306	-0.043335	0.005188	-0.036926	-0.024414	0.28	0.066528	-0.000153	0.011292
29.063	-0.001678	0.016632	-0.057526	0.005341	0.022583	0.079803	0.018921	0.034332	-0.34836	-0.11993	-0.065765	0.007324	0.027161	0.43472	0.19699	0.71365	0.12116	0.34012	0.62454	0.006256	0.050354	-0.043335	0.15121	0.08194	-0.03952	0.005493	-0.10315	-0.018921	0.27496	0.048981	-0.001678	-0.022125
29.064	0.006104	0.071411	-0.10315	0.010681	0.02533	0.016632	-0.17746	0.016022	-0.047607	-0.15381	-0.29221	0.016174	0.1207	0.31433	0.23102	-0.11795	0.098724	0.37842	0.8165	0.036926	0.035248	-0.048828	0.1915	-0.01297	-0.036316	0.001221	0.17044	-0.019226	0.14145	-0.018768	-0.002289	-0.085907
29.065	0.009918	0.063019	-0.083923	0.018768	0.033417	-0.13397	-0.22385	-0.031128	0.17822	0.15656	-0.17807	0.006409	0.12726	0.11078	-0.15793	0.51361	0.071259	0.31891	0.77164	0.06897	0.046692	-0.028381	0.15274	-0.009766	-0.028534	-0.001221	0.07019	-0.019226	-0.06424	-0.043182	-0.002899	-0.058289
29.066	0.001373	0.082397	0.021667	0.001373	0.031586	-0.21561	-0.12573	-0.028992	0.092163	0.1149	-0.024414	-0.002594	0.17487	-0.50644	-0.34424	0.60364	0.045929	0.32272	0.82214	0.10193	0.011444	-0.018311	0.13504	-0.052948	-0.03952	0.001831	-0.047607	-0.013428	-0.045471	-0.054169	0	-0.054932
29.067	0.003815	0.051575	-0.03067	-0.006561	0.023804	-0.23605	-0.048676	-0.015869	-0.070343	-0.075684	-0.11261	-0.00824	0.16083	-0.74402	-0.60928	-0.17075	0.12314	0.34317	0.5397	0.15503	-0.024414	-0.005341	0.088196	-0.055389	-0.045319	-0.002899	0.20233	-0.018921	-0.16571	-0.015411	-0.009155	-0.063782
29.068	-0.000305	0.043335	-0.045471	0.004578	0.042114	-0.18616	0.024872	-0.015564	-0.1799	-0.073547	-0.20981	-0.007629	0.068207	-0.48111	0.27237	-0.075226	0.094299	0.22797	0.36179	0.18143	-0.014496	0.039978	0.09491	-0.068207	-0.028839	-0.006104	0.060577	-0.016937	-0.15778	0.054016	-0.003052	-0.066223
29.069	-0.01297	0.037994	-0.06073	-0.002289	0.035706	-0.11429	0.090027	-0.009766	-0.2385	0.015564	0.11536	-0.001526	-0.054016	-0.26215	-0.16846	-0.066376	0.036774	0.21332	0.28564	0.070953	0.14404	0.076599	0.068817	-0.054169	-0.019684	-0.010986	0.11185	-0.018311	0.16205	0.002747	-0.005951	-0.052643
29.07	-0.013885	0.043945	-0.075531	-0.005188	0.03952	-0.12131	0.20142	-0.014038	-0.20386	-0.059204	0.37064	0.003662	0.033569	-0.082855	-0.32074	-0.058136	-0.014038	0.19791	0.46432	-0.011902	0.12024	0.10452	0.071869	-0.083618	-0.018921	-0.002136	0.31296	-0.013733	0.20874	-0.058594	-0.002747	-0.023346
29.071	0.005646	0.10864	-0.058136	-0.00946	0.02594	-0.065765	0.26459	-0.008392	-0.20615	-0.112	-0.054321	0.004272	0.12589	-0.045776	-0.18265	-0.064545	-0.040436	0.19623	0.39993	0.10162	0.03952	0.11627	0.065308	-0.09201	-0.025024	-0.013733	0.23789	-0.015106	0.21072	-0.012207	-0.00061	-0.008545
29.072	0.012665	0.13641	0.032806	-0.01709	0.023041	-0.047302	0.21133	0.000763	-0.2005	-0.058136	-0.25757	0.00061	-0.00473	0.087128	-0.045013	-0.04837	-0.068665	0.13367	0.23239	0.11917	0.006866	0.11475	0.067291	-0.072632	-0.020294	-0.020447	0.04837	-0.016174	0.26916	-0.020599	-0.002899	0.015564
29.073	0.001984	0.11963	0.024872	-0.007019	0.025024	-0.029755	0.15503	0.000305	-0.15778	0.050659	-0.054321	-0.00824	-0.20371	0.14755	-0.22537	-0.036316	-0.103	0.1059	0.15564	0.10315	0.019531	0.12421	0.03479	-0.026093	-0.001068	-0.020142	-0.011902	-0.008545	0.16708	-0.047302	-0.000153	0.028381
29.074	-0.00473	0.09201	-0.024414	0.012665	0.02243	-0.022736	0.17212	-0.001984	-0.14038	0.045776	0.036316	-0.010986	-0.19562	0.17044	0.042267	-0.097198	-0.049744	0.083008	0.3688	-0.059814	0.12528	0.14786	0.054779	-0.11154	-0.027313	-0.011292	-0.034637	-0.013428	-0.32471	-0.015106	-0.00351	0.066376
29.075	-0.007324	0.10925	0.18768	0.029144	0.016632	0.002289	0.12985	-0.003052	-0.13321	0.018921	0.038452	0.001984	-0.10498	0.13382	-0.25757	-0.11581	-0.051422	0.091553	0.13107	-0.1651	-0.013428	0.14526	0.053711	-0.076294	-0.014496	-0.005188	-0.10284	-0.015717	-0.29541	-0.033417	-0.003967	0.080872
